<?xml version='1.0' encoding='iso-8859-1'?>
<!DOCTYPE svg PUBLIC '-//W3C//DTD SVG 1.1//EN' 'http://www.w3.org/Graphics/SVG/1.1/DTD/svg11.dtd'>
<svg version="1.1" xmlns="http://www.w3.org/2000/svg" viewBox="0 0 297 297" xmlns:xlink="http://www.w3.org/1999/xlink" enable-background="new 0 0 297 297">
  <g>
    <path d="m294.321,129.816l-140.255-126.37c-3.079-2.774-7.757-2.776-10.838-0.006l-140.543,126.37c-2.494,2.244-3.349,5.792-2.148,8.925 1.202,3.133 4.208,5.2 7.565,5.2h23.944l111.124-98.928c3.098-2.837 7.85-2.839 10.947,0.001l111.117,98.927h23.664c3.354,0 6.36-2.066 7.563-5.196 1.202-3.131 0.353-6.678-2.14-8.923z"/>
    <path d="m118.478,184.896c0-9.792 4.589-18.516 11.701-24.105-16.834,5.713-32.044,17.403-39.853,24.105 7.808,6.7 23.019,18.392 39.852,24.106-7.112-5.591-11.7-14.315-11.7-24.106z"/>
    <path d="m167.164,209c16.832-5.713 32.042-17.403 39.851-24.105-7.808-6.701-23.019-18.391-39.851-24.105 7.11,5.591 11.699,14.314 11.699,24.105 0,9.792-4.588,18.515-11.699,24.105z"/>
    <path d="m42.077,156.72v130.816c0,4.473 3.627,8.101 8.101,8.101h196.928c4.473,0 8.101-3.628 8.101-8.101v-130.816l-106.562-94.752-106.568,94.752zm180.49,23.17c2.759,2.767 2.76,7.244 0.001,10.011-1.491,1.495-36.941,36.618-73.898,36.618-36.958,0-72.405-35.124-73.896-36.619-2.758-2.766-2.758-7.243 0-10.009 1.491-1.495 36.938-36.616 73.896-36.616 36.956,2.84217e-14 72.406,35.12 73.897,36.615z"/>
    <path d="m148.669,201.248c8.833,0 16.018-7.336 16.018-16.353 0-9.016-7.184-16.351-16.018-16.351-8.831,0-16.016,7.335-16.016,16.351-2.84217e-14,9.017 7.185,16.353 16.016,16.353z"/>
  </g>
</svg>
