<?xml version="1.0" encoding="iso-8859-1"?>
<!-- Generator: Adobe Illustrator 19.0.0, SVG Export Plug-In . SVG Version: 6.00 Build 0)  -->
<svg version="1.1" id="Layer_1" xmlns="http://www.w3.org/2000/svg" xmlns:xlink="http://www.w3.org/1999/xlink" x="0px" y="0px"
	 viewBox="0 0 512 512" style="enable-background:new 0 0 512 512;" xml:space="preserve">
<polygon style="fill:#FFFFFF;" points="166.128,148.752 198.809,300.935 122.553,300.935 122.553,193.622 "/>
<polygon style="fill:#B3EFFF;" points="389.447,193.622 389.447,300.935 313.191,300.935 345.872,148.752 "/>
<polygon style="fill:#8CE6FE;" points="345.872,148.752 345.872,300.935 269.9,300.935 269.9,75.056 324.085,75.056 "/>
<rect x="223.319" y="94.894" style="fill:#B3EFFF;" width="79.262" height="206.042"/>
<g>
	<polygon style="fill:#D9F7FF;" points="256,75.056 256,300.935 166.128,300.935 166.128,148.752 187.915,75.056 	"/>
	<polygon style="fill:#D9F7FF;" points="324.085,75.056 302.581,94.883 256,94.883 256,12.255 	"/>
</g>
<path style="fill:#FFFFFF;" d="M302.581,94.883c0,0.011-46.581,42.975-46.581,42.975l-68.085-62.802L256,12.255L302.581,94.883z"/>
<polygon style="fill:#66DEFE;" points="503.83,279.148 503.83,507.914 471.149,507.914 405.787,393.531 471.149,279.148 "/>
<rect x="8.17" y="279.148" style="fill:#B3EFFF;" width="462.979" height="228.766"/>
<path style="fill:#FFFFFF;" d="M416.681,319.999H8.17c-4.512,0-8.17-3.658-8.17-8.17s3.658-8.17,8.17-8.17h408.511
	c4.512,0,8.17,3.658,8.17,8.17S421.193,319.999,416.681,319.999z"/>
<g>
	<polygon style="fill:#D9F7FF;" points="171.574,431.662 40.851,431.662 40.851,475.233 193.362,475.233 	"/>
	<polygon style="fill:#D9F7FF;" points="296.851,377.194 389.447,377.194 389.447,409.872 280.511,409.873 	"/>
</g>
<path d="M178.882,428.008c-1.385-2.768-4.213-4.516-7.307-4.516H40.851c-4.512,0-8.17,3.658-8.17,8.17v43.571h16.34v-35.401h117.504
	l19.529,39.055l14.615-7.309L178.882,428.008z"/>
<g>
	<path style="fill:#FFFFFF;" d="M226.043,483.404H8.17c-4.512,0-8.17-3.658-8.17-8.17c0-4.512,3.658-8.17,8.17-8.17h217.872
		c4.512,0,8.17,3.658,8.17,8.17C234.213,479.745,230.555,483.404,226.043,483.404z"/>
	<path style="fill:#FFFFFF;" d="M503.83,352.68H226.043c-4.512,0-8.17-3.658-8.17-8.17c0-4.512,3.658-8.17,8.17-8.17H503.83
		c4.512,0,8.17,3.658,8.17,8.17C512,349.022,508.342,352.68,503.83,352.68z"/>
	<path style="fill:#FFFFFF;" d="M193.362,352.68H95.319c-4.512,0-8.17-3.658-8.17-8.17c0-4.512,3.658-8.17,8.17-8.17h98.043
		c4.512,0,8.17,3.658,8.17,8.17C201.532,349.022,197.874,352.68,193.362,352.68z"/>
	<path style="fill:#FFFFFF;" d="M503.83,450.723h-98.043c-4.512,0-8.17-3.658-8.17-8.17c0-4.512,3.658-8.17,8.17-8.17h98.043
		c4.512,0,8.17,3.658,8.17,8.17C512,447.065,508.342,450.723,503.83,450.723z"/>
</g>
<polygon style="fill:#D9F7FF;" points="438.468,377.194 422.128,409.873 471.149,409.872 471.149,377.194 "/>
<path d="M389.447,369.024h-92.596c-3.095,0-5.924,1.748-7.307,4.517l-16.34,32.678l14.615,7.309l14.082-28.162h79.376v24.507h16.34
	v-32.678C397.617,372.682,393.959,369.024,389.447,369.024z"/>
<path d="M471.149,369.024h-32.681c-3.095,0-5.924,1.748-7.307,4.517l-16.34,32.678l14.615,7.309l14.082-28.162h19.461v24.507h16.34
	v-32.678C479.319,372.682,475.661,369.024,471.149,369.024z"/>
<path style="fill:#FFFFFF;" d="M503.83,418.042H256c-4.512,0-8.17-3.658-8.17-8.17c0-4.512,3.658-8.17,8.17-8.17h247.83
	c4.512,0,8.17,3.658,8.17,8.17C512,414.384,508.342,418.042,503.83,418.042z"/>
<path d="M8.17,287.318h495.66c4.512,0,8.17-3.658,8.17-8.17s-3.658-8.17-8.17-8.17H397.617v-77.352c0-2.125-0.828-4.167-2.308-5.692
	l-42.171-43.432l-21.216-71.763c-0.418-1.414-1.211-2.689-2.295-3.689L261.54,6.25c-3.129-2.886-7.949-2.886-11.079,0
	l-68.085,62.801c-1.084,0.999-1.878,2.275-2.295,3.689l-21.216,71.764l-42.171,43.432c-1.48,1.524-2.308,3.567-2.308,5.692v52.842
	c0,4.512,3.658,8.17,8.17,8.17c4.512,0,8.17-3.658,8.17-8.17v-49.528l27.234-28.047v77.576c0,4.512,3.658,8.17,8.17,8.17
	c4.512,0,8.17-3.658,8.17-8.17v-96.535l20.812-70.4L256,23.369l60.89,56.164l20.812,70.399v121.046H264.17v-46.137
	c0-4.512-3.658-8.17-8.17-8.17s-8.17,3.658-8.17,8.17v46.137H8.17c-4.512,0-8.17,3.658-8.17,8.17S3.658,287.318,8.17,287.318z
	 M354.043,168.892l27.234,28.047v74.038h-27.234V168.892z"/>
<path d="M256,200.332c4.512,0,8.17-3.658,8.17-8.17v-50.726l38.677-35.675c3.317-3.059,3.525-8.228,0.466-11.545
	c-3.06-3.317-8.229-3.526-11.545-0.466L256,126.741l-35.77-32.995c-3.316-3.06-8.486-2.851-11.545,0.466
	c-3.06,3.316-2.851,8.486,0.466,11.545l38.679,35.678v50.726C247.83,196.674,251.488,200.332,256,200.332z"/>
<g>
</g>
<g>
</g>
<g>
</g>
<g>
</g>
<g>
</g>
<g>
</g>
<g>
</g>
<g>
</g>
<g>
</g>
<g>
</g>
<g>
</g>
<g>
</g>
<g>
</g>
<g>
</g>
<g>
</g>
</svg>
