<?xml version="1.0" encoding="iso-8859-1"?>
<!-- Generator: Adobe Illustrator 19.0.0, SVG Export Plug-In . SVG Version: 6.00 Build 0)  -->
<svg version="1.1" id="Capa_1" xmlns="http://www.w3.org/2000/svg" xmlns:xlink="http://www.w3.org/1999/xlink" x="0px" y="0px"
	 viewBox="0 0 470 470" style="enable-background:new 0 0 470 470;" xml:space="preserve">
<g>
	<path style="fill:#FF382E;" d="M322.036,301.976c-5.794,7.511-12.537,14.253-20.048,20.048l59.595,92.905
		c10.319-7.262,20.043-15.438,28.98-24.376c8.938-8.938,17.116-18.663,24.379-28.983L322.036,301.976z"/>
	<path style="fill:#FF382E;" d="M147.965,301.977L55.06,361.571c7.262,10.319,15.438,20.042,24.377,28.981
		c8.938,8.938,18.663,17.116,28.983,24.378l59.593-92.906C160.501,316.23,153.759,309.488,147.965,301.977z"/>
	<path style="fill:#FF382E;" d="M249.188,343.955c-4.646,0.602-9.381,0.914-14.188,0.914c-4.807,0-9.542-0.313-14.187-0.914
		l-23.542,107.778c24.861,4.324,50.596,4.324,75.463,0L249.188,343.955z"/>
	<path style="fill:#FF382E;" d="M113.871,146.132l34.093,21.868c5.794-7.511,12.537-14.253,20.048-20.048l-59.595-92.905
		c-10.319,7.262-20.043,15.438-28.98,24.376c-8.938,8.938-17.116,18.663-24.379,28.983l33.559,21.525
		c3.487,2.236,4.5,6.875,2.264,10.362c-0.001,0.001,12.629,8.102,12.629,8.102C105.745,144.908,110.388,143.896,113.871,146.132z"/>
	<path style="fill:#FF382E;" d="M343.966,220.8c0.602,4.646,0.914,9.381,0.914,14.188c0,4.807-0.313,9.542-0.914,14.187
		l107.779,23.543c2.161-12.432,3.255-25.09,3.255-37.73c0-12.643-1.094-25.301-3.256-37.732L343.966,220.8z"/>
	<path style="fill:#FF382E;" d="M235,329.869c52.317,0,94.88-42.563,94.88-94.88s-42.563-94.88-94.88-94.88
		s-94.88,42.563-94.88,94.88S182.683,329.869,235,329.869z M192.132,186.95c0-4.142,3.357-7.5,7.5-7.5h70.736
		c4.143,0,7.5,3.358,7.5,7.5v96.076c0,4.142-3.357,7.5-7.5,7.5s-7.5-3.358-7.5-7.5v-8.687h-55.736v8.687c0,4.142-3.357,7.5-7.5,7.5
		s-7.5-3.358-7.5-7.5V186.95z"/>
	<path style="fill:#FF382E;" d="M125.12,234.988c0-4.807,0.313-9.542,0.914-14.187L18.255,197.258
		C16.094,209.691,15,222.348,15,234.988c0,12.643,1.094,25.301,3.256,37.732l107.779-23.544
		C125.433,244.531,125.12,239.795,125.12,234.988z"/>
	<path style="fill:#FF382E;" d="M240.368,219.395c4.143,0,7.5,3.358,7.5,7.5s-3.357,7.5-7.5,7.5h-33.236v24.945h55.736v-64.89
		h-55.736v24.945H240.368z"/>
	<path style="fill:#FF382E;" d="M249.187,126.022l23.542-107.778c-24.861-4.324-50.596-4.324-75.463,0l23.546,107.778
		c4.646-0.602,9.381-0.914,14.188-0.914C239.807,125.108,244.542,125.421,249.187,126.022z"/>
	<path style="fill:#FF382E;" d="M322.035,168l92.905-59.594c-7.262-10.319-15.438-20.042-24.377-28.981
		c-8.938-8.938-18.663-17.116-28.983-24.378l-59.593,92.906C309.499,153.747,316.241,160.489,322.035,168z"/>
	<path style="fill:#1C1918;" d="M199.632,290.526c4.143,0,7.5-3.358,7.5-7.5v-8.687h55.736v8.687c0,4.142,3.357,7.5,7.5,7.5
		s7.5-3.358,7.5-7.5V186.95c0-4.142-3.357-7.5-7.5-7.5h-70.736c-4.143,0-7.5,3.358-7.5,7.5v96.076
		C192.132,287.169,195.489,290.526,199.632,290.526z M262.868,194.45v64.89h-55.736v-24.945h33.236c4.143,0,7.5-3.358,7.5-7.5
		s-3.357-7.5-7.5-7.5h-33.236V194.45H262.868z"/>
	<path style="fill:#1C1918;" d="M464.999,186.746c-0.41-1.957-1.586-3.669-3.265-4.755c-1.68-1.087-3.722-1.458-5.676-1.031
		l-115.042,25.131c-2.471-9.055-6.068-17.651-10.64-25.62l99.139-63.593c1.683-1.08,2.865-2.787,3.284-4.742
		c0.419-1.956,0.039-3.997-1.055-5.671c-8.831-13.524-19.117-26.19-30.573-37.646c-11.457-11.456-24.123-21.744-37.649-30.577
		c-1.675-1.093-3.721-1.474-5.671-1.054c-1.956,0.418-3.663,1.601-4.742,3.284l-63.591,99.14
		c-7.969-4.573-16.565-8.17-25.621-10.641l25.129-115.042c0.427-1.954,0.056-3.997-1.031-5.676
		c-1.086-1.679-2.798-2.854-4.755-3.265c-31.614-6.636-64.861-6.637-96.481,0c-1.958,0.411-3.67,1.586-4.756,3.265
		c-1.087,1.679-1.458,3.722-1.031,5.676l25.132,115.042c-9.056,2.471-17.652,6.068-25.621,10.641l-63.593-99.139
		c-1.079-1.683-2.786-2.866-4.742-3.284c-1.956-0.42-3.996-0.04-5.671,1.054c-13.524,8.832-26.19,19.119-37.646,30.575
		c-11.455,11.455-21.742,24.122-30.575,37.648c-1.094,1.675-1.474,3.716-1.055,5.672c0.419,1.955,1.602,3.663,3.285,4.742
		l40.034,25.679c3.483,2.236,8.124,1.223,10.36-2.262c2.237-3.488,1.224-8.127-2.263-10.364l-33.559-21.525
		c7.263-10.321,15.44-20.046,24.379-28.983c8.938-8.938,18.661-17.115,28.98-24.376l59.595,92.905
		c-7.511,5.794-14.253,12.537-20.048,20.048l-34.093-21.868c-3.483-2.237-8.126-1.224-10.361,2.264
		c-2.236,3.488-1.223,8.126,2.264,10.362l33.851,21.713c-4.573,7.969-8.17,16.565-10.641,25.62L13.94,180.963
		c-1.955-0.427-3.997-0.055-5.676,1.031C6.586,183.08,5.41,184.792,5,186.749c-3.317,15.809-5,32.039-5,48.239
		c0,16.204,1.683,32.435,5.001,48.243c0.41,1.957,1.586,3.669,3.265,4.755c1.224,0.792,2.641,1.204,4.075,1.204
		c0.534,0,1.07-0.057,1.601-0.173l115.042-25.131c2.471,9.055,6.068,17.651,10.64,25.62l-99.139,63.593
		c-1.683,1.08-2.865,2.787-3.284,4.742c-0.419,1.956-0.039,3.997,1.055,5.671c8.831,13.524,19.117,26.19,30.573,37.646
		c11.457,11.456,24.123,21.744,37.649,30.577c1.229,0.802,2.655,1.22,4.101,1.22c0.524,0,1.051-0.055,1.57-0.167
		c1.956-0.418,3.663-1.601,4.742-3.284l63.591-99.14c7.969,4.573,16.565,8.17,25.621,10.641l-25.129,115.042
		c-0.427,1.954-0.056,3.997,1.031,5.676c1.086,1.679,2.798,2.854,4.755,3.265c15.808,3.318,32.037,5,48.239,5
		c16.201,0,32.433-1.683,48.242-5.001c1.958-0.411,3.67-1.586,4.756-3.265c1.087-1.679,1.458-3.722,1.031-5.676l-25.132-115.042
		c9.056-2.471,17.652-6.068,25.621-10.641l63.593,99.139c1.079,1.683,2.786,2.866,4.742,3.284c0.521,0.112,1.046,0.167,1.57,0.167
		c1.445,0,2.872-0.418,4.101-1.221c13.524-8.832,26.19-19.119,37.646-30.574c11.455-11.455,21.742-24.122,30.575-37.648
		c1.094-1.675,1.474-3.716,1.055-5.672c-0.419-1.955-1.602-3.663-3.285-4.742l-99.14-63.59c4.573-7.969,8.17-16.565,10.641-25.62
		l115.043,25.129c0.53,0.116,1.066,0.173,1.601,0.173c1.435,0,2.852-0.412,4.075-1.204c1.679-1.087,2.854-2.799,3.265-4.756
		c3.317-15.809,5-32.039,5-48.239C470,218.785,468.317,202.554,464.999,186.746z M451.745,272.718l-107.779-23.543
		c0.601-4.646,0.914-9.381,0.914-14.187c0-4.807-0.313-9.542-0.914-14.188l107.779-23.544c2.162,12.432,3.256,25.09,3.256,37.732
		C455,247.629,453.906,260.286,451.745,272.718z M361.583,414.928l-59.595-92.905c7.511-5.794,14.253-12.537,20.048-20.048
		l92.907,59.593c-7.263,10.321-15.44,20.046-24.379,28.983C381.626,399.49,371.902,407.667,361.583,414.928z M197.271,451.733
		l23.542-107.778c4.646,0.602,9.38,0.914,14.187,0.914c4.807,0,9.542-0.313,14.188-0.914l23.546,107.778
		C247.866,456.057,222.132,456.057,197.271,451.733z M79.437,390.552c-8.938-8.938-17.115-18.662-24.377-28.981l92.905-59.594
		c5.794,7.511,12.536,14.253,20.047,20.047L108.42,414.93C98.1,407.668,88.374,399.49,79.437,390.552z M15,234.988
		c0-12.64,1.094-25.298,3.255-37.73l107.779,23.543c-0.601,4.646-0.914,9.381-0.914,14.187c0,4.807,0.313,9.542,0.914,14.188
		L18.256,272.721C16.094,260.289,15,247.631,15,234.988z M220.812,126.022L197.267,18.244c24.867-4.325,50.602-4.324,75.463,0
		l-23.542,107.778c-4.646-0.602-9.38-0.914-14.187-0.914C230.193,125.108,225.458,125.421,220.812,126.022z M390.563,79.425
		c8.938,8.938,17.115,18.662,24.377,28.981L322.035,168c-5.794-7.511-12.536-14.253-20.047-20.047l59.593-92.906
		C371.9,62.309,381.626,70.486,390.563,79.425z M235,140.108c52.317,0,94.88,42.563,94.88,94.88s-42.563,94.88-94.88,94.88
		s-94.88-42.563-94.88-94.88S182.683,140.108,235,140.108z"/>
</g>
<g>
</g>
<g>
</g>
<g>
</g>
<g>
</g>
<g>
</g>
<g>
</g>
<g>
</g>
<g>
</g>
<g>
</g>
<g>
</g>
<g>
</g>
<g>
</g>
<g>
</g>
<g>
</g>
<g>
</g>
</svg>
